<svg width="146" height="146" viewBox="0 0 146 146" fill="none" xmlns="http://www.w3.org/2000/svg">
<path d="M124.618 21.3817C110.831 7.59357 92.5001 0 73 0C53.4999 0 35.1685 7.59357 21.3817 21.3817C7.59487 35.1685 0 53.5012 0 73C0 92.4988 7.59487 110.831 21.3817 124.618C35.1685 138.406 53.4999 146 73 146C92.5001 146 110.831 138.406 124.618 124.618C138.405 110.831 146 92.4988 146 73C146 53.5012 138.405 35.1685 124.618 21.3817ZM120.932 120.932C108.128 133.734 91.1074 140.786 73 140.786C65.9678 140.786 59.105 139.709 52.5845 137.659L97.2266 93.0176C98.8115 93.9539 100.607 94.4899 102.496 94.4899C105.283 94.4899 107.901 93.404 109.869 91.4346C111.84 89.4652 112.924 86.8465 112.924 84.0613C112.924 81.2761 111.84 78.6562 109.869 76.6868C107.901 74.7173 105.281 73.6328 102.496 73.6328C99.7104 73.6328 97.0929 74.7173 95.1224 76.6868C93.1519 78.6562 92.0671 81.2761 92.0671 84.0613C92.0671 85.9512 92.6031 87.7455 93.5388 89.3309L47.1653 135.706C39.0002 132.342 31.5008 127.364 25.0682 120.932C12.2669 108.129 5.21429 91.1061 5.21429 73C5.21429 54.8939 12.2669 37.8711 25.0682 25.0682C37.8724 12.2656 54.8926 5.21429 73 5.21429C80.0322 5.21429 86.895 6.29051 93.4155 8.34077L48.7731 52.9824C47.1882 52.0461 45.3932 51.5101 43.5041 51.5101C40.7163 51.5101 38.099 52.596 36.1308 54.5654C34.1601 56.5349 33.0755 59.1535 33.0755 61.9387C33.0755 64.7239 34.1601 67.3438 36.1308 69.3132C38.099 71.2827 40.7189 72.3672 43.5041 72.3672C46.2893 72.3672 48.9069 71.2827 50.8774 69.3132C52.8478 67.3438 53.9327 64.7239 53.9327 61.9387C53.9327 60.0488 53.3966 58.2545 52.4609 56.6691L98.8344 10.2943C106.999 13.6583 114.499 18.6359 120.932 25.0682C133.733 37.8711 140.786 54.8939 140.786 73C140.786 91.1061 133.733 108.129 120.932 120.932ZM97.2816 84.0613C97.2816 82.6686 97.8239 81.3588 98.8092 80.3733C100.78 78.4051 104.212 78.4051 106.182 80.3733C107.168 81.3585 107.71 82.6686 107.71 84.0613C107.71 85.4541 107.168 86.7626 106.182 87.7481C104.212 89.7188 100.78 89.7188 98.8092 87.7481C97.8239 86.7626 97.2816 85.4541 97.2816 84.0613ZM48.7184 61.9387C48.7184 63.3314 48.1761 64.6412 47.1908 65.6267C45.2201 67.5949 41.7881 67.5949 39.8176 65.6267C38.8323 64.6415 38.2901 63.3314 38.2901 61.9387C38.2901 60.5459 38.8323 59.2374 39.8176 58.2519C40.8028 57.2664 42.1116 56.7244 43.5043 56.7244C44.8971 56.7244 46.2056 57.2667 47.1911 58.2519C48.1766 59.2372 48.7184 60.5459 48.7184 61.9387Z" fill="black"/>
<path d="M96.9658 38.6056C94.1804 38.6056 91.5607 39.6915 89.5926 41.6609C87.6218 43.6303 86.5373 46.249 86.5373 49.0342C86.5373 50.9241 87.0733 52.7183 88.009 54.3037L54.3031 88.0096C52.7182 87.0739 50.9232 86.5374 49.034 86.5374C46.2486 86.5374 43.6289 87.6233 41.6608 89.5927C39.69 91.5621 38.6055 94.1808 38.6055 96.966C38.6055 99.7512 39.69 102.37 41.6608 104.339C43.6289 106.309 46.2488 107.395 49.034 107.395C51.8193 107.395 54.4392 106.309 56.4073 104.339C58.378 102.37 59.4626 99.7512 59.4626 96.966C59.4626 95.076 58.9266 93.2818 57.9909 91.6964L91.6965 57.9907C93.2814 58.9264 95.0764 59.463 96.9656 59.463C99.751 59.463 102.371 58.3771 104.339 56.4077C106.31 54.4382 107.394 51.8196 107.394 49.0344C107.394 46.2492 106.31 43.6303 104.339 41.6612C102.371 39.6915 99.7511 38.6056 96.9658 38.6056ZM52.7208 100.652C50.7501 102.623 47.318 102.623 45.3475 100.652C44.3623 99.6672 43.82 98.3584 43.82 96.9657C43.82 95.573 44.3623 94.2644 45.3475 93.2789C46.3328 92.2934 47.6416 91.7514 49.0343 91.7514C50.427 91.7514 51.7356 92.2937 52.7211 93.2789C53.7066 94.2642 54.2486 95.573 54.2486 96.9657C54.2486 98.3584 53.706 99.6672 52.7208 100.652ZM100.652 52.7209C98.6816 54.6917 95.2496 54.6917 93.2791 52.7209C92.2938 51.7357 91.7516 50.4269 91.7516 49.0342C91.7516 47.6414 92.2938 46.3329 93.2791 45.3474C94.2643 44.3619 95.5731 43.8199 96.9658 43.8199C98.3586 43.8199 99.6671 44.3622 100.653 45.3474C101.638 46.3326 102.18 47.6414 102.18 49.0342C102.18 50.4269 101.638 51.7357 100.652 52.7209Z" fill="black"/>
<path d="M14.2168 73.0001C14.2168 88.5903 20.41 103.542 31.434 114.566C42.458 125.59 57.4098 131.783 73.0001 131.783C88.5903 131.783 103.542 125.59 114.566 114.566C125.59 103.542 131.783 88.5903 131.783 73.0001C131.783 57.4098 125.59 42.458 114.566 31.434C103.542 20.41 88.5903 14.2168 73.0001 14.2168C57.4098 14.2168 42.458 20.41 31.434 31.434C20.41 42.458 14.2168 57.4098 14.2168 73.0001" fill="#69F7BE"/>
<path d="M14.2168 73.0001C14.2168 88.5904 20.41 103.542 31.434 114.566C42.458 125.59 57.4098 131.783 73.0001 131.783C88.5904 131.783 103.542 125.59 114.566 114.566C125.59 103.542 131.783 88.5904 131.783 73.0001C131.783 57.4098 125.59 42.458 114.566 31.434C103.542 20.41 88.5904 14.2168 73.0001 14.2168C57.4098 14.2168 42.458 20.41 31.434 31.434C20.41 42.458 14.2168 57.4098 14.2168 73.0001" stroke="black" stroke-width="5.50943"/>
<path d="M124.618 21.3817C110.831 7.59357 92.5001 0 73 0C53.4999 0 35.1685 7.59357 21.3817 21.3817C7.59487 35.1685 0 53.5012 0 73C0 92.4988 7.59487 110.831 21.3817 124.618C35.1685 138.406 53.4999 146 73 146C92.5001 146 110.831 138.406 124.618 124.618C138.405 110.831 146 92.4988 146 73C146 53.5012 138.405 35.1685 124.618 21.3817ZM120.932 120.932C108.128 133.734 91.1074 140.786 73 140.786C65.9678 140.786 59.105 139.709 52.5845 137.659L97.2266 93.0176C98.8115 93.9539 100.607 94.4899 102.496 94.4899C105.283 94.4899 107.901 93.404 109.869 91.4346C111.84 89.4652 112.924 86.8465 112.924 84.0613C112.924 81.2761 111.84 78.6562 109.869 76.6868C107.901 74.7173 105.281 73.6328 102.496 73.6328C99.7104 73.6328 97.0929 74.7173 95.1224 76.6868C93.1519 78.6562 92.0671 81.2761 92.0671 84.0613C92.0671 85.9512 92.6031 87.7455 93.5388 89.3309L47.1653 135.706C39.0002 132.342 31.5008 127.364 25.0682 120.932C12.2669 108.129 5.21429 91.1061 5.21429 73C5.21429 54.8939 12.2669 37.8711 25.0682 25.0682C37.8724 12.2656 54.8926 5.21429 73 5.21429C80.0322 5.21429 86.895 6.29051 93.4155 8.34077L48.7731 52.9824C47.1882 52.0461 45.3932 51.5101 43.5041 51.5101C40.7163 51.5101 38.099 52.596 36.1308 54.5654C34.1601 56.5349 33.0755 59.1535 33.0755 61.9387C33.0755 64.7239 34.1601 67.3438 36.1308 69.3132C38.099 71.2827 40.7189 72.3672 43.5041 72.3672C46.2893 72.3672 48.9069 71.2827 50.8774 69.3132C52.8478 67.3438 53.9327 64.7239 53.9327 61.9387C53.9327 60.0488 53.3966 58.2545 52.4609 56.6691L98.8344 10.2943C106.999 13.6583 114.499 18.6359 120.932 25.0682C133.733 37.8711 140.786 54.8939 140.786 73C140.786 91.1061 133.733 108.129 120.932 120.932ZM97.2816 84.0613C97.2816 82.6686 97.8239 81.3588 98.8092 80.3733C100.78 78.4051 104.212 78.4051 106.182 80.3733C107.168 81.3585 107.71 82.6686 107.71 84.0613C107.71 85.4541 107.168 86.7626 106.182 87.7481C104.212 89.7188 100.78 89.7188 98.8092 87.7481C97.8239 86.7626 97.2816 85.4541 97.2816 84.0613ZM48.7184 61.9387C48.7184 63.3314 48.1761 64.6412 47.1908 65.6267C45.2201 67.5949 41.7881 67.5949 39.8176 65.6267C38.8323 64.6415 38.2901 63.3314 38.2901 61.9387C38.2901 60.5459 38.8323 59.2374 39.8176 58.2519C40.8028 57.2664 42.1116 56.7244 43.5043 56.7244C44.8971 56.7244 46.2056 57.2667 47.1911 58.2519C48.1766 59.2372 48.7184 60.5459 48.7184 61.9387Z" fill="black"/>
<path d="M96.9658 38.6056C94.1804 38.6056 91.5607 39.6915 89.5926 41.6609C87.6218 43.6303 86.5373 46.249 86.5373 49.0342C86.5373 50.9241 87.0733 52.7183 88.009 54.3037L54.3031 88.0096C52.7182 87.0739 50.9232 86.5374 49.034 86.5374C46.2486 86.5374 43.6289 87.6233 41.6608 89.5927C39.69 91.5621 38.6055 94.1808 38.6055 96.966C38.6055 99.7512 39.69 102.37 41.6608 104.339C43.6289 106.309 46.2488 107.395 49.034 107.395C51.8193 107.395 54.4392 106.309 56.4073 104.339C58.378 102.37 59.4626 99.7512 59.4626 96.966C59.4626 95.076 58.9266 93.2818 57.9909 91.6964L91.6965 57.9907C93.2814 58.9264 95.0764 59.463 96.9656 59.463C99.751 59.463 102.371 58.3771 104.339 56.4077C106.31 54.4382 107.394 51.8196 107.394 49.0344C107.394 46.2492 106.31 43.6303 104.339 41.6612C102.371 39.6915 99.7511 38.6056 96.9658 38.6056ZM52.7208 100.652C50.7501 102.623 47.318 102.623 45.3475 100.652C44.3623 99.6672 43.82 98.3584 43.82 96.9657C43.82 95.573 44.3623 94.2644 45.3475 93.2789C46.3328 92.2934 47.6416 91.7514 49.0343 91.7514C50.427 91.7514 51.7356 92.2937 52.7211 93.2789C53.7066 94.2642 54.2486 95.573 54.2486 96.9657C54.2486 98.3584 53.706 99.6672 52.7208 100.652ZM100.652 52.7209C98.6816 54.6917 95.2496 54.6917 93.2791 52.7209C92.2938 51.7357 91.7516 50.4269 91.7516 49.0342C91.7516 47.6414 92.2938 46.3329 93.2791 45.3474C94.2643 44.3619 95.5731 43.8199 96.9658 43.8199C98.3586 43.8199 99.6671 44.3622 100.653 45.3474C101.638 46.3326 102.18 47.6414 102.18 49.0342C102.18 50.4269 101.638 51.7357 100.652 52.7209Z" fill="black"/>
</svg>
