<svg width="530" height="530" viewBox="0 0 530 530" fill="none" xmlns="http://www.w3.org/2000/svg">
<path d="M452.382 77.6185C402.333 27.5657 335.788 0 265 0C194.212 0 127.667 27.5657 77.6185 77.6185C27.5704 127.667 0 194.217 0 265C0 335.783 27.5704 402.333 77.6185 452.382C127.667 502.434 194.212 530 265 530C335.788 530 402.333 502.434 452.382 452.382C502.43 402.333 530 335.783 530 265C530 194.217 502.43 127.667 452.382 77.6185ZM438.999 438.999C392.518 485.474 330.732 511.071 265 511.071C239.472 511.071 214.559 507.165 190.889 499.722L352.946 337.667C358.699 341.065 365.215 343.011 372.073 343.011C382.193 343.011 391.695 339.069 398.839 331.92C405.993 324.771 409.93 315.265 409.93 305.154C409.93 295.043 405.993 285.533 398.839 278.383C391.695 271.234 382.184 267.297 372.073 267.297C361.963 267.297 352.46 271.234 345.307 278.383C338.154 285.533 334.216 295.043 334.216 305.154C334.216 312.015 336.162 318.528 339.559 324.283L171.216 492.63C141.576 480.418 114.352 462.349 91.001 438.999C44.5304 392.523 18.9286 330.728 18.9286 265C18.9286 199.272 44.5304 137.477 91.001 91.001C137.482 44.5257 199.268 18.9286 265 18.9286C290.528 18.9286 315.441 22.8354 339.111 30.2781L177.053 192.333C171.3 188.935 164.784 186.989 157.926 186.989C147.806 186.989 138.304 190.931 131.16 198.08C124.006 205.229 120.069 214.735 120.069 224.846C120.069 234.957 124.006 244.467 131.16 251.617C138.304 258.766 147.815 262.703 157.926 262.703C168.037 262.703 177.539 258.766 184.692 251.617C191.845 244.467 195.783 234.957 195.783 224.846C195.783 217.985 193.837 211.472 190.44 205.717L358.783 37.3697C388.423 49.5815 415.647 67.6507 438.998 91.001C485.47 137.477 511.071 199.272 511.071 265C511.071 330.728 485.47 392.523 438.999 438.999ZM353.146 305.154C353.146 300.098 355.114 295.343 358.691 291.766C365.845 284.621 378.304 284.621 385.457 291.766C389.033 295.342 391.002 300.098 391.002 305.154C391.002 310.21 389.033 314.96 385.457 318.538C378.303 325.692 365.844 325.692 358.691 318.538C355.114 314.96 353.146 310.21 353.146 305.154ZM176.854 224.846C176.854 229.902 174.886 234.657 171.309 238.234C164.155 245.379 151.696 245.379 144.543 238.234C140.967 234.658 138.998 229.902 138.998 224.846C138.998 219.79 140.967 215.04 144.543 211.462C148.12 207.885 152.871 205.917 157.927 205.917C162.983 205.917 167.733 207.886 171.31 211.462C174.888 215.039 176.854 219.79 176.854 224.846Z" fill="black"/>
<path d="M351.999 140.143C341.888 140.143 332.378 144.085 325.234 151.235C318.079 158.384 314.142 167.89 314.142 178.001C314.142 184.861 316.088 191.375 319.485 197.13L197.128 319.487C191.374 316.09 184.858 314.143 178 314.143C167.889 314.143 158.379 318.084 151.235 325.234C144.08 332.383 140.143 341.889 140.143 352C140.143 362.11 144.08 371.617 151.235 378.766C158.379 385.915 167.89 389.857 178 389.857C188.111 389.857 197.622 385.915 204.766 378.766C211.92 371.616 215.858 362.11 215.858 352C215.858 345.139 213.912 338.626 210.515 332.87L332.871 210.514C338.625 213.911 345.141 215.859 351.998 215.859C362.11 215.859 371.62 211.917 378.764 204.768C385.919 197.618 389.856 188.112 389.856 178.002C389.856 167.891 385.919 158.384 378.764 151.236C371.621 144.085 362.11 140.143 351.999 140.143ZM191.384 365.382C184.23 372.536 171.771 372.536 164.618 365.382C161.041 361.806 159.073 357.055 159.073 351.999C159.073 346.943 161.041 342.193 164.618 338.615C168.195 335.038 172.946 333.07 178.001 333.07C183.057 333.07 187.807 335.039 191.385 338.615C194.962 342.192 196.93 346.943 196.93 351.999C196.93 357.055 194.96 361.806 191.384 365.382ZM365.382 191.384C358.228 198.538 345.769 198.538 338.616 191.384C335.039 187.808 333.071 183.056 333.071 178.001C333.071 172.945 335.039 168.195 338.616 164.617C342.193 161.04 346.944 159.072 351.999 159.072C357.055 159.072 361.805 161.041 365.383 164.617C368.96 168.194 370.928 172.945 370.928 178.001C370.928 183.056 368.959 187.808 365.382 191.384Z" fill="black"/>
<path d="M51.6089 265C51.6089 321.595 74.0911 375.872 114.11 415.891C154.128 455.909 208.405 478.391 265 478.391C321.595 478.391 375.872 455.909 415.891 415.891C455.909 375.872 478.391 321.595 478.391 265C478.391 208.405 455.909 154.128 415.891 114.11C375.872 74.0911 321.595 51.6089 265 51.6089C208.405 51.6089 154.128 74.0911 114.11 114.11C74.0911 154.128 51.6089 208.405 51.6089 265" fill="#69F7BE"/>
<path d="M51.6089 265C51.6089 321.595 74.0911 375.872 114.11 415.891C154.128 455.909 208.405 478.391 265 478.391C321.595 478.391 375.872 455.909 415.891 415.891C455.909 375.872 478.391 321.595 478.391 265C478.391 208.405 455.909 154.128 415.891 114.11C375.872 74.0911 321.595 51.6089 265 51.6089C208.405 51.6089 154.128 74.0911 114.11 114.11C74.0911 154.128 51.6089 208.405 51.6089 265" stroke="black" stroke-width="20"/>
<path d="M452.382 77.6185C402.333 27.5657 335.788 0 265 0C194.212 0 127.667 27.5657 77.6185 77.6185C27.5704 127.667 0 194.217 0 265C0 335.783 27.5704 402.333 77.6185 452.382C127.667 502.434 194.212 530 265 530C335.788 530 402.333 502.434 452.382 452.382C502.43 402.333 530 335.783 530 265C530 194.217 502.43 127.667 452.382 77.6185ZM438.999 438.999C392.518 485.474 330.732 511.071 265 511.071C239.472 511.071 214.559 507.165 190.889 499.722L352.946 337.667C358.699 341.065 365.215 343.011 372.073 343.011C382.193 343.011 391.695 339.069 398.839 331.92C405.993 324.771 409.93 315.265 409.93 305.154C409.93 295.043 405.993 285.533 398.839 278.383C391.695 271.234 382.184 267.297 372.073 267.297C361.963 267.297 352.46 271.234 345.307 278.383C338.154 285.533 334.216 295.043 334.216 305.154C334.216 312.015 336.162 318.528 339.559 324.283L171.216 492.63C141.576 480.418 114.352 462.349 91.001 438.999C44.5304 392.523 18.9286 330.728 18.9286 265C18.9286 199.272 44.5304 137.477 91.001 91.001C137.482 44.5257 199.268 18.9286 265 18.9286C290.528 18.9286 315.441 22.8354 339.111 30.2781L177.053 192.333C171.3 188.935 164.784 186.989 157.926 186.989C147.806 186.989 138.304 190.931 131.16 198.08C124.006 205.229 120.069 214.735 120.069 224.846C120.069 234.957 124.006 244.467 131.16 251.617C138.304 258.766 147.815 262.703 157.926 262.703C168.037 262.703 177.539 258.766 184.692 251.617C191.845 244.467 195.783 234.957 195.783 224.846C195.783 217.985 193.837 211.472 190.44 205.717L358.783 37.3697C388.423 49.5815 415.647 67.6507 438.998 91.001C485.47 137.477 511.071 199.272 511.071 265C511.071 330.728 485.47 392.523 438.999 438.999ZM353.146 305.154C353.146 300.098 355.114 295.343 358.691 291.766C365.845 284.621 378.304 284.621 385.457 291.766C389.033 295.342 391.002 300.098 391.002 305.154C391.002 310.21 389.033 314.96 385.457 318.538C378.303 325.692 365.844 325.692 358.691 318.538C355.114 314.96 353.146 310.21 353.146 305.154ZM176.854 224.846C176.854 229.902 174.886 234.657 171.309 238.234C164.155 245.379 151.696 245.379 144.543 238.234C140.967 234.658 138.998 229.902 138.998 224.846C138.998 219.79 140.967 215.04 144.543 211.462C148.12 207.885 152.871 205.917 157.927 205.917C162.983 205.917 167.733 207.886 171.31 211.462C174.888 215.039 176.854 219.79 176.854 224.846Z" fill="black"/>
<path d="M351.999 140.143C341.888 140.143 332.378 144.085 325.234 151.235C318.079 158.384 314.142 167.89 314.142 178.001C314.142 184.861 316.088 191.375 319.485 197.13L197.128 319.487C191.374 316.09 184.858 314.143 178 314.143C167.889 314.143 158.379 318.084 151.235 325.234C144.08 332.383 140.143 341.889 140.143 352C140.143 362.11 144.08 371.617 151.235 378.766C158.379 385.915 167.89 389.857 178 389.857C188.111 389.857 197.622 385.915 204.766 378.766C211.92 371.616 215.858 362.11 215.858 352C215.858 345.139 213.912 338.626 210.515 332.87L332.871 210.514C338.625 213.911 345.141 215.859 351.998 215.859C362.11 215.859 371.62 211.917 378.764 204.768C385.919 197.618 389.856 188.112 389.856 178.002C389.856 167.891 385.919 158.384 378.764 151.236C371.621 144.085 362.11 140.143 351.999 140.143ZM191.384 365.382C184.23 372.536 171.771 372.536 164.618 365.382C161.041 361.806 159.073 357.055 159.073 351.999C159.073 346.943 161.041 342.193 164.618 338.615C168.195 335.038 172.946 333.07 178.001 333.07C183.057 333.07 187.807 335.039 191.385 338.615C194.962 342.192 196.93 346.943 196.93 351.999C196.93 357.055 194.96 361.806 191.384 365.382ZM365.382 191.384C358.228 198.538 345.769 198.538 338.616 191.384C335.039 187.808 333.071 183.056 333.071 178.001C333.071 172.945 335.039 168.195 338.616 164.617C342.193 161.04 346.944 159.072 351.999 159.072C357.055 159.072 361.805 161.041 365.383 164.617C368.96 168.194 370.928 172.945 370.928 178.001C370.928 183.056 368.959 187.808 365.382 191.384Z" fill="black"/>
</svg>
